<svg xmlns="http://www.w3.org/2000/svg" width="48" height="48"><path d="M41 10H25v28h16c.554688 0 1-.445312 1-1V11c0-.554687-.445312-1-1-1z" fill="#4caf50"/><path d="M32 15h7v3h-7zM32 25h7v3h-7zM32 30h7v3h-7zM32 20h7v3h-7zM25 15h5v3h-5zM25 25h5v3h-5zM25 30h5v3h-5zM25 20h5v3h-5z" fill="#fff"/><path d="M27 42L6 38V10l21-4z" fill="#2e7d32"/><path d="M19.128906 31l-2.410156-4.5625c-.09375-.167969-.1875-.480469-.285156-.9375h-.035156c-.046875.214844-.15625.542969-.324219.980469L13.652344 31H9.894531l4.460938-7-4.082031-7h3.835937l2.003906 4.195313c.15625.332031.292969.726562.417969 1.179687h.039063c.078125-.269531.226562-.679687.441406-1.21875L19.238281 17h3.515625l-4.199218 6.9375 4.3125 7.058594h-3.738282z" fill="#fff"/></svg>