<svg width="129" height="108" fill="none" xmlns="http://www.w3.org/2000/svg"><path fill-rule="evenodd" clip-rule="evenodd" d="M65.0962 54.2106l-15.989-21.153 15.989-21.9273v43.0803zm8.7756 14.5582H53.2173L37.5544 45.6616 21.7805 68.7688H.00830078L26.0017 34.4949.896973 0H23.78l13.7744 21.4488L51.3289 0h21.8833l-.0096.0132103C73.4214.00440216 73.6443 0 73.8718 0h45.7662c5.851 0 8.776 2.91143 8.776 8.73429V24.7656h-21.439V9.95047c0-1.47415-.223-2.39549-.667-2.76402-.37-.44224-1.296-.66337-2.777-.66337H89.9788c-1.481 0-2.4439.22113-2.8882.66337-.3701.36853-.5554 1.28987-.5554 2.76402V58.8183c0 1.4741.1853 2.4323.5554 2.8746.4443.3685 1.4072.5528 2.8882.5528h13.5522c1.481 0 2.407-.1843 2.777-.5528.444-.4423.667-1.4005.667-2.8746v-14.594h21.439v15.8102c0 5.8228-2.925 8.7343-8.776 8.7343H73.8718zM16.887 100.521H3.59204V79.4682H0v23.2588h16.887v-2.206zm17.4265-8.1892H22.092v-4.3751c0-.4737.0826-.7853.2478-.9349.1651-.1495.5091-.2243 1.0323-.2243h9.6613c.523 0 .8672.0748 1.0323.2243.1653.1496.2478.4612.2478.9349v4.3751zm.2478-7.7406H21.803c-2.1746 0-3.2617.9847-3.2617 2.9541v12.228c0 1.9697 1.0871 2.9537 3.2617 2.9537h12.6343c2.1745 0 3.2619-.984 3.2619-2.9537v-2.1689h-3.5095v1.7575c0 .4986-.0828.8231-.2478.9721-.1377.125-.4817.187-1.0322.187h-9.5376c-.5232 0-.8672-.062-1.0323-.187-.1652-.149-.2478-.4735-.2478-.9721v-4.8238h15.731v-6.9928c0-1.9694-1.0872-2.9541-3.2617-2.9541zm11.4033 15.9298h9.0835c.4956 0 .8533-.1 1.0735-.299.2202-.199.3303-.536.3303-1.0097v-11.106c0-.4737-.1101-.8102-.3303-1.0097-.2202-.1994-.5779-.2991-1.0735-.2991h-9.0835c-.5229 0-.8669.0748-1.0322.2243-.1651.1496-.2478.4612-.2478.9349v11.4052c0 .4986.0827.8231.2478.9721.1653.125.5093.187 1.0322.187zm10.4873-15.9298h3.5508v18.1358h-3.5508v-1.196c-.3579.798-1.1147 1.196-2.2707 1.196h-9.7854c-2.1746 0-3.262-.984-3.262-2.9537v-12.228c0-1.9694 1.0874-2.9541 3.262-2.9541h9.7854c1.156 0 1.9128.3989 2.2707 1.1966v-1.1966zm21.592 15.9298h-9.0835c-.5229 0-.8669-.062-1.0322-.187-.165-.149-.2478-.4735-.2478-.9721V87.9567c0-.4737.0828-.7853.2478-.9349.1653-.1495.5093-.2243 1.0322-.2243h9.0835c.4957 0 .8533.0997 1.0735.2991.2202.1995.3304.536.3304 1.0097v11.106c0 .4737-.1102.8107-.3304 1.0097-.2202.199-.5778.299-1.0735.299zm4.9959 1.72h-.0413V84.5912h-3.5507v1.1966c-.358-.7977-1.1148-1.1966-2.2708-1.1966h-9.7854c-2.1746 0-3.262.9847-3.262 2.9541v12.228c0 1.9697 1.0874 2.9537 3.262 2.9537h9.7854c1.156 0 1.9128-.398 2.2708-1.196v1.122h.0412v1.982c0 .473-.0825.785-.2475.934-.1653.15-.5093.225-1.0323.225H64.8315V108h14.9466c2.1745 0 3.2617-.985 3.2617-2.954v-2.805zm19.0012-17.6498h3.55v18.1358h-3.55v-1.196c-.358.798-1.115 1.196-2.2715 1.196h-9.7854c-2.1745 0-3.2617-.984-3.2617-2.9537V84.5912h3.5508v14.7707c0 .4986.0825.8231.2478.9721.165.125.509.187 1.0322.187h9.0838c.495 0 .853-.1 1.073-.299.22-.199.331-.536.331-1.0097V84.5912zm23.449 7.7406h-12.221v-4.3751c0-.4737.083-.7853.248-.9349.165-.1495.509-.2243 1.032-.2243h9.661c.523 0 .868.0748 1.033.2243.165.1496.247.4612.247.9349v4.3751zm.248-7.7406H112.98c-2.175 0-3.262.9847-3.262 2.9541v12.228c0 1.9697 1.087 2.9537 3.262 2.9537h12.634c2.175 0 3.262-.984 3.262-2.9537v-2.1689h-3.509v1.7575c0 .4986-.083.8231-.248.9721-.138.125-.482.187-1.032.187h-9.538c-.523 0-.867-.062-1.032-.187-.165-.149-.248-.4735-.248-.9721v-4.8238H129v-6.9928c0-1.9694-1.087-2.9541-3.262-2.9541z" fill="#fff"/></svg>